<svg width="167" height="47" viewBox="0 0 167 47" fill="none" xmlns="http://www.w3.org/2000/svg">
<path d="M2.184 39V22.2H5.784V35.76H13.392V39H2.184ZM21.8139 39.24C20.4379 39.24 19.2299 38.96 18.1899 38.4C17.1659 37.84 16.3659 37.072 15.7899 36.096C15.2299 35.12 14.9499 34.008 14.9499 32.76C14.9499 31.768 15.1099 30.864 15.4299 30.048C15.7499 29.216 16.1979 28.504 16.7739 27.912C17.3499 27.32 18.0299 26.864 18.8139 26.544C19.6139 26.208 20.4859 26.04 21.4299 26.04C22.2939 26.04 23.0859 26.2 23.8059 26.52C24.5419 26.824 25.1739 27.264 25.7019 27.84C26.2459 28.4 26.6619 29.064 26.9499 29.832C27.2379 30.6 27.3739 31.44 27.3579 32.352L27.3339 33.408H17.1339L16.5819 31.296H24.5259L24.1179 31.728V31.224C24.0859 30.776 23.9419 30.384 23.6859 30.048C23.4459 29.712 23.1339 29.448 22.7499 29.256C22.3659 29.048 21.9419 28.944 21.4779 28.944C20.7579 28.944 20.1499 29.088 19.6539 29.376C19.1739 29.648 18.8059 30.048 18.5499 30.576C18.3099 31.088 18.1899 31.728 18.1899 32.496C18.1899 33.248 18.3499 33.912 18.6699 34.488C18.9899 35.048 19.4459 35.48 20.0379 35.784C20.6459 36.088 21.3579 36.24 22.1739 36.24C22.7339 36.24 23.2459 36.152 23.7099 35.976C24.1739 35.8 24.6779 35.496 25.2219 35.064L26.8299 37.344C26.3819 37.744 25.8779 38.088 25.3179 38.376C24.7579 38.664 24.1819 38.88 23.5899 39.024C22.9979 39.168 22.4059 39.24 21.8139 39.24ZM31.0999 39V23.088H34.5079V39H31.0999ZM28.7239 29.352V26.304H37.1239V29.352H28.7239ZM39.2252 28.344L38.1692 27.072C38.8252 26.8 39.3532 26.464 39.7532 26.064C40.1692 25.648 40.3772 25.296 40.3772 25.008C40.3772 24.832 40.3052 24.664 40.1612 24.504C40.0332 24.328 39.8652 24.168 39.6572 24.024C39.2892 23.736 39.0332 23.48 38.8892 23.256C38.7612 23.016 38.6972 22.76 38.6972 22.488C38.6972 22.024 38.8572 21.656 39.1772 21.384C39.5132 21.112 39.9452 20.976 40.4732 20.976C40.9532 20.976 41.3772 21.104 41.7452 21.36C42.1292 21.6 42.4332 21.944 42.6572 22.392C42.8812 22.824 42.9932 23.328 42.9932 23.904C42.9932 24.384 42.8972 24.856 42.7052 25.32C42.5132 25.784 42.2492 26.216 41.9132 26.616C41.5772 27.016 41.1772 27.368 40.7132 27.672C40.2652 27.976 39.7692 28.2 39.2252 28.344ZM49.9213 39.24C48.7533 39.24 47.7053 39.048 46.7773 38.664C45.8653 38.28 45.1213 37.736 44.5453 37.032L46.6813 35.208C47.1773 35.736 47.7213 36.12 48.3133 36.36C48.9213 36.584 49.5373 36.696 50.1613 36.696C50.3853 36.696 50.5933 36.672 50.7853 36.624C50.9773 36.56 51.1453 36.48 51.2893 36.384C51.4333 36.272 51.5373 36.144 51.6013 36C51.6813 35.856 51.7213 35.688 51.7213 35.496C51.7213 35.144 51.5773 34.872 51.2893 34.68C51.1613 34.584 50.9213 34.48 50.5693 34.368C50.2333 34.24 49.8013 34.104 49.2733 33.96C48.4573 33.752 47.7693 33.512 47.2093 33.24C46.6493 32.952 46.1933 32.624 45.8413 32.256C45.5533 31.952 45.3293 31.6 45.1693 31.2C45.0253 30.8 44.9533 30.36 44.9533 29.88C44.9533 29.112 45.1773 28.44 45.6253 27.864C46.0733 27.288 46.6653 26.84 47.4013 26.52C48.1533 26.2 48.9693 26.04 49.8493 26.04C50.5053 26.04 51.1373 26.12 51.7453 26.28C52.3693 26.44 52.9453 26.672 53.4733 26.976C54.0173 27.264 54.4893 27.608 54.8893 28.008L53.0653 30.048C52.7773 29.76 52.4493 29.512 52.0813 29.304C51.7133 29.08 51.3453 28.904 50.9773 28.776C50.6093 28.632 50.2733 28.56 49.9693 28.56C49.6973 28.56 49.4493 28.584 49.2253 28.632C49.0173 28.68 48.8413 28.76 48.6973 28.872C48.5533 28.968 48.4413 29.088 48.3613 29.232C48.2973 29.376 48.2653 29.536 48.2653 29.712C48.2653 29.888 48.3053 30.056 48.3853 30.216C48.4813 30.36 48.6093 30.496 48.7693 30.624C48.9293 30.72 49.1853 30.832 49.5373 30.96C49.9053 31.088 50.3773 31.232 50.9533 31.392C51.7213 31.6 52.3693 31.832 52.8973 32.088C53.4253 32.344 53.8493 32.64 54.1693 32.976C54.4573 33.264 54.6573 33.6 54.7693 33.984C54.8973 34.352 54.9613 34.752 54.9613 35.184C54.9613 35.968 54.7373 36.672 54.2893 37.296C53.8573 37.904 53.2573 38.384 52.4893 38.736C51.7373 39.072 50.8813 39.24 49.9213 39.24ZM57.8949 39V22.2H61.4949V39H57.8949ZM59.5509 32.328V29.208H68.2629V32.328H59.5509ZM59.5509 25.44V22.2H69.2709V25.44H59.5509ZM77.6621 39.24C76.3821 39.24 75.2301 38.96 74.2061 38.4C73.1981 37.824 72.3981 37.04 71.8061 36.048C71.2301 35.056 70.9421 33.928 70.9421 32.664C70.9421 31.368 71.2301 30.224 71.8061 29.232C72.3981 28.24 73.1981 27.464 74.2061 26.904C75.2301 26.328 76.3821 26.04 77.6621 26.04C78.9581 26.04 80.1101 26.328 81.1181 26.904C82.1261 27.464 82.9181 28.24 83.4941 29.232C84.0861 30.224 84.3821 31.368 84.3821 32.664C84.3821 33.928 84.0861 35.056 83.4941 36.048C82.9181 37.04 82.1261 37.824 81.1181 38.4C80.1101 38.96 78.9581 39.24 77.6621 39.24ZM77.6621 36.288C78.3021 36.288 78.8621 36.128 79.3421 35.808C79.8381 35.488 80.2221 35.056 80.4941 34.512C80.7821 33.968 80.9181 33.352 80.9021 32.664C80.9181 31.944 80.7821 31.312 80.4941 30.768C80.2221 30.208 79.8381 29.776 79.3421 29.472C78.8621 29.152 78.3021 28.992 77.6621 28.992C77.0381 28.992 76.4781 29.152 75.9821 29.472C75.4861 29.792 75.0941 30.224 74.8061 30.768C74.5181 31.312 74.3821 31.944 74.3981 32.664C74.3821 33.352 74.5181 33.968 74.8061 34.512C75.0941 35.056 75.4861 35.488 75.9821 35.808C76.4781 36.128 77.0381 36.288 77.6621 36.288ZM92.8262 39.24C91.5462 39.24 90.3942 38.96 89.3702 38.4C88.3622 37.824 87.5622 37.04 86.9702 36.048C86.3942 35.056 86.1062 33.928 86.1062 32.664C86.1062 31.368 86.3942 30.224 86.9702 29.232C87.5622 28.24 88.3622 27.464 89.3702 26.904C90.3942 26.328 91.5462 26.04 92.8262 26.04C94.1222 26.04 95.2742 26.328 96.2822 26.904C97.2902 27.464 98.0822 28.24 98.6582 29.232C99.2502 30.224 99.5462 31.368 99.5462 32.664C99.5462 33.928 99.2502 35.056 98.6582 36.048C98.0822 37.04 97.2902 37.824 96.2822 38.4C95.2742 38.96 94.1222 39.24 92.8262 39.24ZM92.8262 36.288C93.4662 36.288 94.0262 36.128 94.5062 35.808C95.0022 35.488 95.3862 35.056 95.6582 34.512C95.9462 33.968 96.0822 33.352 96.0662 32.664C96.0822 31.944 95.9462 31.312 95.6582 30.768C95.3862 30.208 95.0022 29.776 94.5062 29.472C94.0262 29.152 93.4662 28.992 92.8262 28.992C92.2022 28.992 91.6422 29.152 91.1462 29.472C90.6502 29.792 90.2582 30.224 89.9702 30.768C89.6822 31.312 89.5462 31.944 89.5622 32.664C89.5462 33.352 89.6822 33.968 89.9702 34.512C90.2582 35.056 90.6502 35.488 91.1462 35.808C91.6422 36.128 92.2022 36.288 92.8262 36.288ZM107.102 39.24C105.998 39.24 104.998 38.96 104.102 38.4C103.222 37.84 102.526 37.064 102.014 36.072C101.518 35.064 101.27 33.928 101.27 32.664C101.27 31.384 101.518 30.248 102.014 29.256C102.526 28.264 103.222 27.48 104.102 26.904C104.982 26.328 105.982 26.04 107.102 26.04C107.694 26.04 108.262 26.136 108.806 26.328C109.366 26.504 109.862 26.752 110.294 27.072C110.726 27.392 111.078 27.752 111.35 28.152C111.622 28.536 111.782 28.936 111.83 29.352L110.966 29.52V21.24H114.35V39H111.134L110.99 36.072L111.662 36.168C111.646 36.552 111.51 36.928 111.254 37.296C110.998 37.664 110.654 38 110.222 38.304C109.806 38.592 109.326 38.824 108.782 39C108.254 39.16 107.694 39.24 107.102 39.24ZM107.846 36.408C108.502 36.408 109.062 36.248 109.526 35.928C110.006 35.608 110.382 35.168 110.654 34.608C110.926 34.048 111.062 33.4 111.062 32.664C111.062 31.912 110.926 31.256 110.654 30.696C110.382 30.12 110.006 29.68 109.526 29.376C109.062 29.056 108.502 28.896 107.846 28.896C107.222 28.896 106.67 29.056 106.19 29.376C105.71 29.68 105.334 30.12 105.062 30.696C104.806 31.256 104.678 31.912 104.678 32.664C104.678 33.4 104.806 34.048 105.062 34.608C105.334 35.168 105.71 35.608 106.19 35.928C106.67 36.248 107.222 36.408 107.846 36.408Z" fill="#1D1D1D"/>
<path d="M139.1 10.835C139.584 10.835 140.048 10.644 140.392 10.3035C140.735 9.96297 140.931 9.50051 140.936 9.01665C140.94 8.53248 140.754 8.06605 140.416 7.71889C140.079 7.37174 139.618 7.17197 139.133 7.16309M138.941 14.4892C138.457 14.4892 137.993 14.2982 137.649 13.9577C137.305 13.6172 137.11 13.1548 137.105 12.6709C137.1 12.1867 137.287 11.7203 137.625 11.3731C137.962 11.026 138.423 10.8262 138.907 10.8173M139.1 18.1611C139.584 18.1611 140.048 17.9701 140.392 17.6296C140.735 17.2891 140.931 16.8266 140.936 16.3428C140.94 15.8586 140.754 15.3922 140.416 15.045C140.079 14.6979 139.618 14.4981 139.133 14.4892M146.443 10.835C146.927 10.835 147.392 10.644 147.735 10.3035C148.079 9.96297 148.275 9.50051 148.279 9.01665C148.284 8.53248 148.097 8.06605 147.76 7.71889C147.422 7.37174 146.961 7.17197 146.477 7.16309M146.285 14.4892C145.801 14.4892 145.337 14.2982 144.993 13.9577C144.649 13.6172 144.453 13.1548 144.449 12.6709C144.444 12.1867 144.631 11.7203 144.968 11.3731C145.306 11.026 145.767 10.8262 146.251 10.8173M146.443 18.1611C146.927 18.1611 147.392 17.9701 147.735 17.6296C148.079 17.2891 148.275 16.8266 148.279 16.3428C148.284 15.8586 148.097 15.3922 147.76 15.045C147.422 14.6979 146.961 14.4981 146.477 14.4892M132.324 10.835C132.808 10.835 133.273 10.644 133.616 10.3035C133.96 9.96297 134.156 9.50051 134.16 9.01665C134.165 8.53273 133.978 8.06651 133.641 7.7194C133.304 7.37229 132.843 7.17235 132.36 7.16309M132.167 14.4892C131.683 14.4892 131.219 14.2982 130.875 13.9577C130.531 13.6172 130.336 13.1548 130.331 12.6709C130.326 12.187 130.513 11.7208 130.85 11.3737C131.187 11.0265 131.648 10.8266 132.132 10.8173M132.324 18.1611C132.808 18.1611 133.273 17.9701 133.616 17.6296C133.96 17.2891 134.156 16.8266 134.16 16.3428C134.165 15.8589 133.978 15.3926 133.641 15.0455C133.304 14.6984 132.843 14.4985 132.36 14.4892" stroke="#FAA41A" stroke-linecap="round" stroke-linejoin="round"/>
<path d="M133.04 39.8369H146.255V35.4659C143.44 36.7085 141.799 36.9023 139.517 36.9493C136.663 37.0081 134.729 36.5146 133.04 36.0916V39.8369Z" stroke="#383747" stroke-linecap="round" stroke-linejoin="round"/>
<path d="M156.281 24.0126C153.814 33.2275 144.383 38.6957 135.168 36.2267C132.243 35.4459 129.577 33.9078 127.436 31.7675C125.296 29.6272 123.758 26.9604 122.977 24.0361L156.281 24.0126Z" fill="#FAA41A" stroke="#383747" stroke-linecap="round" stroke-linejoin="round"/>
<path d="M122.968 21.0677H156.287V24.0919H122.968V21.0677Z" stroke="#383747" stroke-linecap="round" stroke-linejoin="round"/>
<path d="M144.49 21.0589C155.946 21.5113 153.066 13.348 161.533 12.6107C162.371 12.5372 162.811 12.5211 163.986 12.596L164.03 12.5813C162.569 11.7118 159.875 10.2401 157.626 10.8643C156.476 11.1845 154.685 12.4212 153.485 14.7785C150.463 21.3938 147.521 21.0457 145.127 21.0575L144.49 21.0589Z" stroke="#383747" stroke-linecap="round" stroke-linejoin="round"/>
<path d="M151.54 26.6079C150.5 29.7804 147.717 31.9835 144.486 32.5828" stroke="white" stroke-linecap="round" stroke-linejoin="round"/>
</svg>
