<svg width="174" height="47" viewBox="0 0 174 47" fill="none" xmlns="http://www.w3.org/2000/svg">
<path d="M9.888 38.24C8.576 38.24 7.384 38.024 6.312 37.592C5.24 37.16 4.312 36.552 3.528 35.768C2.744 34.984 2.136 34.064 1.704 33.008C1.288 31.952 1.08 30.808 1.08 29.576C1.08 28.344 1.296 27.2 1.728 26.144C2.176 25.088 2.8 24.176 3.6 23.408C4.416 22.624 5.368 22.016 6.456 21.584C7.544 21.152 8.736 20.936 10.032 20.936C10.928 20.936 11.784 21.056 12.6 21.296C13.416 21.536 14.16 21.864 14.832 22.28C15.504 22.696 16.056 23.176 16.488 23.72L14.256 26.072C13.632 25.48 12.968 25.024 12.264 24.704C11.56 24.368 10.8 24.2 9.984 24.2C9.232 24.2 8.536 24.336 7.896 24.608C7.272 24.864 6.72 25.24 6.24 25.736C5.776 26.216 5.408 26.784 5.136 27.44C4.88 28.096 4.752 28.808 4.752 29.576C4.752 30.328 4.888 31.032 5.16 31.688C5.448 32.344 5.832 32.92 6.312 33.416C6.808 33.896 7.384 34.28 8.04 34.568C8.696 34.84 9.4 34.976 10.152 34.976C10.68 34.976 11.176 34.896 11.64 34.736C12.12 34.56 12.536 34.328 12.888 34.04C13.256 33.752 13.544 33.416 13.752 33.032C13.96 32.648 14.064 32.232 14.064 31.784V31.208L14.52 31.88H9.768V28.856H17.496C17.528 29.032 17.552 29.248 17.568 29.504C17.584 29.76 17.592 30.008 17.592 30.248C17.608 30.488 17.616 30.688 17.616 30.848C17.616 31.936 17.424 32.936 17.04 33.848C16.656 34.744 16.112 35.52 15.408 36.176C14.704 36.832 13.88 37.344 12.936 37.712C11.992 38.064 10.976 38.24 9.888 38.24ZM20.3608 38V20.24H23.7688V38H20.3608ZM32.8496 38.24C31.5696 38.24 30.4176 37.96 29.3936 37.4C28.3856 36.824 27.5856 36.04 26.9936 35.048C26.4176 34.056 26.1296 32.928 26.1296 31.664C26.1296 30.368 26.4176 29.224 26.9936 28.232C27.5856 27.24 28.3856 26.464 29.3936 25.904C30.4176 25.328 31.5696 25.04 32.8496 25.04C34.1456 25.04 35.2976 25.328 36.3056 25.904C37.3136 26.464 38.1056 27.24 38.6816 28.232C39.2736 29.224 39.5696 30.368 39.5696 31.664C39.5696 32.928 39.2736 34.056 38.6816 35.048C38.1056 36.04 37.3136 36.824 36.3056 37.4C35.2976 37.96 34.1456 38.24 32.8496 38.24ZM32.8496 35.288C33.4896 35.288 34.0496 35.128 34.5296 34.808C35.0256 34.488 35.4096 34.056 35.6816 33.512C35.9696 32.968 36.1056 32.352 36.0896 31.664C36.1056 30.944 35.9696 30.312 35.6816 29.768C35.4096 29.208 35.0256 28.776 34.5296 28.472C34.0496 28.152 33.4896 27.992 32.8496 27.992C32.2256 27.992 31.6656 28.152 31.1696 28.472C30.6736 28.792 30.2816 29.224 29.9936 29.768C29.7056 30.312 29.5696 30.944 29.5856 31.664C29.5696 32.352 29.7056 32.968 29.9936 33.512C30.2816 34.056 30.6736 34.488 31.1696 34.808C31.6656 35.128 32.2256 35.288 32.8496 35.288ZM49.4537 38.24C48.8937 38.24 48.3497 38.16 47.8217 38C47.2937 37.824 46.8137 37.6 46.3817 37.328C45.9497 37.056 45.5897 36.744 45.3017 36.392C45.0137 36.04 44.8297 35.672 44.7497 35.288L45.5177 34.976L45.3737 37.952H42.1337V20.24H45.5657V28.256L44.8937 27.992C44.9897 27.608 45.1737 27.24 45.4457 26.888C45.7177 26.536 46.0617 26.224 46.4777 25.952C46.8937 25.664 47.3497 25.44 47.8457 25.28C48.3417 25.12 48.8457 25.04 49.3577 25.04C50.4777 25.04 51.4697 25.328 52.3337 25.904C53.1977 26.464 53.8777 27.248 54.3737 28.256C54.8857 29.248 55.1417 30.376 55.1417 31.64C55.1417 32.92 54.8937 34.056 54.3977 35.048C53.9017 36.04 53.2217 36.824 52.3577 37.4C51.5097 37.96 50.5417 38.24 49.4537 38.24ZM48.6377 35.336C49.2777 35.336 49.8297 35.184 50.2937 34.88C50.7737 34.56 51.1497 34.128 51.4217 33.584C51.6937 33.024 51.8297 32.376 51.8297 31.64C51.8297 30.92 51.6937 30.288 51.4217 29.744C51.1657 29.184 50.7977 28.752 50.3177 28.448C49.8377 28.128 49.2777 27.968 48.6377 27.968C48.0137 27.968 47.4617 28.128 46.9817 28.448C46.5017 28.752 46.1257 29.184 45.8537 29.744C45.5817 30.288 45.4457 30.92 45.4457 31.64C45.4457 32.376 45.5817 33.024 45.8537 33.584C46.1257 34.128 46.5017 34.56 46.9817 34.88C47.4617 35.184 48.0137 35.336 48.6377 35.336ZM64.7516 38V30.056C64.7516 29.384 64.5436 28.872 64.1276 28.52C63.7276 28.152 63.1836 27.968 62.4956 27.968C61.8396 27.968 61.2556 28.096 60.7436 28.352C60.2316 28.608 59.7516 29.008 59.3036 29.552L57.2156 27.536C57.9836 26.736 58.8396 26.12 59.7836 25.688C60.7436 25.256 61.7836 25.04 62.9036 25.04C63.9276 25.04 64.8156 25.2 65.5676 25.52C66.3356 25.84 66.9276 26.32 67.3436 26.96C67.7596 27.6 67.9676 28.408 67.9676 29.384V38H64.7516ZM61.2716 38.24C60.4716 38.24 59.7436 38.08 59.0876 37.76C58.4476 37.44 57.9356 37 57.5516 36.44C57.1836 35.864 56.9996 35.192 56.9996 34.424C56.9996 33.768 57.1196 33.192 57.3596 32.696C57.5996 32.184 57.9516 31.768 58.4156 31.448C58.8956 31.112 59.4876 30.856 60.1916 30.68C60.9116 30.504 61.7436 30.416 62.6876 30.416H66.4316L66.2156 32.696H62.6396C62.2556 32.696 61.9116 32.728 61.6076 32.792C61.3196 32.856 61.0716 32.96 60.8636 33.104C60.6716 33.248 60.5196 33.416 60.4076 33.608C60.3116 33.8 60.2636 34.024 60.2636 34.28C60.2636 34.552 60.3356 34.792 60.4796 35C60.6236 35.208 60.8156 35.368 61.0556 35.48C61.3116 35.592 61.5996 35.648 61.9196 35.648C62.3836 35.648 62.8236 35.568 63.2396 35.408C63.6716 35.248 64.0556 35.024 64.3916 34.736C64.7276 34.448 64.9916 34.12 65.1836 33.752L65.8316 35.456C65.4956 36 65.0876 36.48 64.6076 36.896C64.1276 37.312 63.6076 37.64 63.0476 37.88C62.4876 38.12 61.8956 38.24 61.2716 38.24ZM71.0561 38V20.24H74.4641V38H71.0561ZM78.3793 38V21.2H89.7073V24.368H81.9073V34.832H89.8753V38H78.3793ZM80.0593 30.968V27.896H88.5553V30.968H80.0593ZM100.049 38V30.056C100.049 29.384 99.8405 28.872 99.4245 28.52C99.0245 28.152 98.4805 27.968 97.7925 27.968C97.1365 27.968 96.5525 28.096 96.0405 28.352C95.5285 28.608 95.0485 29.008 94.6005 29.552L92.5125 27.536C93.2805 26.736 94.1365 26.12 95.0805 25.688C96.0405 25.256 97.0805 25.04 98.2005 25.04C99.2245 25.04 100.113 25.2 100.865 25.52C101.633 25.84 102.225 26.32 102.641 26.96C103.057 27.6 103.265 28.408 103.265 29.384V38H100.049ZM96.5685 38.24C95.7685 38.24 95.0405 38.08 94.3845 37.76C93.7445 37.44 93.2325 37 92.8485 36.44C92.4805 35.864 92.2965 35.192 92.2965 34.424C92.2965 33.768 92.4165 33.192 92.6565 32.696C92.8965 32.184 93.2485 31.768 93.7125 31.448C94.1925 31.112 94.7845 30.856 95.4885 30.68C96.2085 30.504 97.0405 30.416 97.9845 30.416H101.729L101.513 32.696H97.9365C97.5525 32.696 97.2085 32.728 96.9045 32.792C96.6165 32.856 96.3685 32.96 96.1605 33.104C95.9685 33.248 95.8165 33.416 95.7045 33.608C95.6085 33.8 95.5605 34.024 95.5605 34.28C95.5605 34.552 95.6325 34.792 95.7765 35C95.9205 35.208 96.1125 35.368 96.3525 35.48C96.6085 35.592 96.8965 35.648 97.2165 35.648C97.6805 35.648 98.1205 35.568 98.5365 35.408C98.9685 35.248 99.3525 35.024 99.6885 34.736C100.025 34.448 100.289 34.12 100.481 33.752L101.129 35.456C100.793 36 100.385 36.48 99.9045 36.896C99.4245 37.312 98.9045 37.64 98.3445 37.88C97.7845 38.12 97.1925 38.24 96.5685 38.24ZM107.553 38V22.088H110.961V38H107.553ZM105.177 28.352V25.304H113.577V28.352H105.177ZM120.515 38.24C119.347 38.24 118.299 38.048 117.371 37.664C116.459 37.28 115.715 36.736 115.139 36.032L117.275 34.208C117.771 34.736 118.315 35.12 118.907 35.36C119.515 35.584 120.131 35.696 120.755 35.696C120.979 35.696 121.187 35.672 121.379 35.624C121.571 35.56 121.739 35.48 121.883 35.384C122.027 35.272 122.131 35.144 122.195 35C122.275 34.856 122.315 34.688 122.315 34.496C122.315 34.144 122.171 33.872 121.883 33.68C121.755 33.584 121.515 33.48 121.163 33.368C120.827 33.24 120.395 33.104 119.867 32.96C119.051 32.752 118.363 32.512 117.803 32.24C117.243 31.952 116.787 31.624 116.435 31.256C116.147 30.952 115.923 30.6 115.763 30.2C115.619 29.8 115.547 29.36 115.547 28.88C115.547 28.112 115.771 27.44 116.219 26.864C116.667 26.288 117.259 25.84 117.995 25.52C118.747 25.2 119.563 25.04 120.443 25.04C121.099 25.04 121.731 25.12 122.339 25.28C122.963 25.44 123.539 25.672 124.067 25.976C124.611 26.264 125.083 26.608 125.483 27.008L123.659 29.048C123.371 28.76 123.043 28.512 122.675 28.304C122.307 28.08 121.939 27.904 121.571 27.776C121.203 27.632 120.867 27.56 120.563 27.56C120.291 27.56 120.043 27.584 119.819 27.632C119.611 27.68 119.435 27.76 119.291 27.872C119.147 27.968 119.035 28.088 118.955 28.232C118.891 28.376 118.859 28.536 118.859 28.712C118.859 28.888 118.899 29.056 118.979 29.216C119.075 29.36 119.203 29.496 119.363 29.624C119.523 29.72 119.779 29.832 120.131 29.96C120.499 30.088 120.971 30.232 121.547 30.392C122.315 30.6 122.963 30.832 123.491 31.088C124.019 31.344 124.443 31.64 124.763 31.976C125.051 32.264 125.251 32.6 125.363 32.984C125.491 33.352 125.555 33.752 125.555 34.184C125.555 34.968 125.331 35.672 124.883 36.296C124.451 36.904 123.851 37.384 123.083 37.736C122.331 38.072 121.475 38.24 120.515 38.24Z" fill="#020617"/>
<path d="M146.1 10.835C146.584 10.835 147.048 10.644 147.392 10.3035C147.735 9.96297 147.931 9.50051 147.936 9.01665C147.94 8.53248 147.754 8.06605 147.416 7.71889C147.079 7.37174 146.618 7.17197 146.133 7.16309M145.941 14.4892C145.457 14.4892 144.993 14.2982 144.649 13.9577C144.305 13.6172 144.11 13.1548 144.105 12.6709C144.1 12.1867 144.287 11.7203 144.625 11.3731C144.962 11.026 145.423 10.8262 145.907 10.8173M146.1 18.1611C146.584 18.1611 147.048 17.9701 147.392 17.6296C147.735 17.2891 147.931 16.8266 147.936 16.3428C147.94 15.8586 147.754 15.3922 147.416 15.045C147.079 14.6979 146.618 14.4981 146.133 14.4892M153.443 10.835C153.927 10.835 154.392 10.644 154.735 10.3035C155.079 9.96297 155.275 9.50051 155.279 9.01665C155.284 8.53248 155.097 8.06605 154.76 7.71889C154.422 7.37174 153.961 7.17197 153.477 7.16309M153.285 14.4892C152.801 14.4892 152.337 14.2982 151.993 13.9577C151.649 13.6172 151.453 13.1548 151.449 12.6709C151.444 12.1867 151.631 11.7203 151.968 11.3731C152.306 11.026 152.767 10.8262 153.251 10.8173M153.443 18.1611C153.927 18.1611 154.392 17.9701 154.735 17.6296C155.079 17.2891 155.275 16.8266 155.279 16.3428C155.284 15.8586 155.097 15.3922 154.76 15.045C154.422 14.6979 153.961 14.4981 153.477 14.4892M139.324 10.835C139.808 10.835 140.273 10.644 140.616 10.3035C140.96 9.96297 141.156 9.50051 141.16 9.01665C141.165 8.53273 140.978 8.06651 140.641 7.7194C140.304 7.37229 139.843 7.17235 139.36 7.16309M139.167 14.4892C138.683 14.4892 138.219 14.2982 137.875 13.9577C137.531 13.6172 137.336 13.1548 137.331 12.6709C137.326 12.187 137.513 11.7208 137.85 11.3737C138.187 11.0265 138.648 10.8266 139.132 10.8173M139.324 18.1611C139.808 18.1611 140.273 17.9701 140.616 17.6296C140.96 17.2891 141.156 16.8266 141.16 16.3428C141.165 15.8589 140.978 15.3926 140.641 15.0455C140.304 14.6984 139.843 14.4985 139.36 14.4892" stroke="#FAA41A" stroke-linecap="round" stroke-linejoin="round"/>
<path d="M140.04 39.8369H153.255V35.4659C150.44 36.7085 148.799 36.9023 146.517 36.9493C143.663 37.0081 141.729 36.5146 140.04 36.0916V39.8369Z" stroke="#383747" stroke-linecap="round" stroke-linejoin="round"/>
<path d="M163.281 24.0126C160.814 33.2275 151.383 38.6957 142.168 36.2267C139.243 35.4459 136.577 33.9078 134.436 31.7675C132.296 29.6272 130.758 26.9604 129.977 24.0361L163.281 24.0126Z" fill="#FAA41A" stroke="#383747" stroke-linecap="round" stroke-linejoin="round"/>
<path d="M129.968 21.0677H163.287V24.0919H129.968V21.0677Z" stroke="#383747" stroke-linecap="round" stroke-linejoin="round"/>
<path d="M151.49 21.0589C162.946 21.5113 160.066 13.348 168.533 12.6107C169.371 12.5372 169.811 12.5211 170.986 12.596L171.03 12.5813C169.569 11.7118 166.875 10.2401 164.626 10.8643C163.476 11.1845 161.685 12.4212 160.485 14.7785C157.463 21.3938 154.521 21.0457 152.127 21.0575L151.49 21.0589Z" stroke="#383747" stroke-linecap="round" stroke-linejoin="round"/>
<path d="M158.54 26.6079C157.5 29.7804 154.717 31.9835 151.486 32.5828" stroke="white" stroke-linecap="round" stroke-linejoin="round"/>
</svg>
